<svg id="OBJECTS" xmlns="http://www.w3.org/2000/svg" viewBox="0 0 169.08 96.33"><defs><style>.cls-1{fill:#11477c;}.cls-2{fill:#f7931e;}</style></defs><title>29</title><path class="cls-1" d="M163.05,153.05A2,2,0,0,0,165,155h17.68a2,2,0,0,0,2-1.95v-4.91H163.05Zm21-40.21h-8a1.72,1.72,0,0,0-1.51.91l-3.26,6.19h9.59a4.87,4.87,0,0,0,4.87-4.88v-.51A1.7,1.7,0,0,0,184,112.84Zm-92.95,7.1-3.27-6.19a1.69,1.69,0,0,0-1.5-.91h-8a1.71,1.71,0,0,0-1.71,1.71v.51a4.88,4.88,0,0,0,4.88,4.88ZM77.66,153.05A2,2,0,0,0,79.6,155H97.28a2,2,0,0,0,1.94-1.95v-4.91H77.66Zm73-19H111.74a.51.51,0,1,0,0,1h38.89a.51.51,0,1,0,0-1Zm0,2.68H111.74a.51.51,0,1,0,0,1h38.89a.51.51,0,0,0,0-1Zm29.9-16.38c-2.26-.33-4.54-.64-6.8-.93l-8-17.31A12,12,0,0,0,157,95.3a144.37,144.37,0,0,0-51.61,0,12,12,0,0,0-8.76,6.79l-8,17.31c-2.26.29-4.53.6-6.79.93a4.9,4.9,0,0,0-4.18,4.85v23h107v-23A4.89,4.89,0,0,0,180.53,120.33ZM98.64,105a9.69,9.69,0,0,1,7.13-4.94,159.33,159.33,0,0,1,50.83,0,9.67,9.67,0,0,1,7.12,4.94L171,119.08a343.34,343.34,0,0,0-79.65,0Zm-.92,32.25H88.4a4.34,4.34,0,0,1-4.15-3.07l-1.54-5A1.68,1.68,0,0,1,84.85,127l12.27,4.14,2,3.7A1.6,1.6,0,0,1,97.72,137.22Zm60-2.21-2,5.69a2.71,2.71,0,0,1-2.56,1.81h-44a2.7,2.7,0,0,1-2.56-1.81l-2-5.69a2.71,2.71,0,0,1,2.56-3.62h48A2.72,2.72,0,0,1,157.74,135Zm21.92-5.89-1.54,5a4.34,4.34,0,0,1-4.15,3.07h-9.32a1.6,1.6,0,0,1-1.41-2.35l2-3.7L177.51,127A1.69,1.69,0,0,1,179.66,129.12Zm-29,10.28H111.74a.51.51,0,0,0-.51.51.5.5,0,0,0,.51.5h38.89a.5.5,0,0,0,.51-.5A.51.51,0,0,0,150.63,139.4Z" transform="translate(-46.64 -65.9)"/><path class="cls-2" d="M214.52,126.55a68.88,68.88,0,0,0-6.17-17.36A74.46,74.46,0,0,0,197.72,94a78.77,78.77,0,0,0-14-12.18A87.51,87.51,0,0,0,167.43,73a95.29,95.29,0,0,0-36.24-7.11,98.71,98.71,0,0,0-18.47,1.77A95,95,0,0,0,94.94,73a83.81,83.81,0,0,0-30.3,21A75.32,75.32,0,0,0,54,109.19a69.27,69.27,0,0,0-6.17,17.36,65.25,65.25,0,0,0-.94,18.22,63.57,63.57,0,0,0,1.52,8.93,59.7,59.7,0,0,0,2.85,8.53A67.34,67.34,0,0,1,49,144.67a64.63,64.63,0,0,1,9.36-33A74.46,74.46,0,0,1,68.94,98.11,83.23,83.23,0,0,1,97.62,79.68a94.2,94.2,0,0,1,67.14,0A82.47,82.47,0,0,1,193.44,98.1,74.18,74.18,0,0,1,204,111.62a64.49,64.49,0,0,1,9.35,33,66.5,66.5,0,0,1-2.27,17.56A59.7,59.7,0,0,0,214,153.7a62,62,0,0,0,.57-27.15Z" transform="translate(-46.64 -65.9)"/></svg>